<svg width="309" height="45" viewBox="0 0 309 45" fill="none" xmlns="http://www.w3.org/2000/svg">
<path d="M3.97894 35.384C2.98694 35.384 2.21894 35.112 1.67494 34.568C1.16294 33.992 0.906938 33.208 0.906938 32.216V4.28C0.906938 3.256 1.17894 2.488 1.72294 1.976C2.26694 1.432 3.03494 1.16 4.02694 1.16H15.5949C19.3069 1.16 22.1709 2.088 24.1869 3.944C26.2029 5.8 27.2109 8.392 27.2109 11.72C27.2109 15.048 26.2029 17.656 24.1869 19.544C22.1709 21.4 19.3069 22.328 15.5949 22.328H7.05094V32.216C7.05094 33.208 6.79494 33.992 6.28294 34.568C5.77094 35.112 5.00294 35.384 3.97894 35.384ZM7.05094 17.48H14.6349C16.8109 17.48 18.4589 17 19.5789 16.04C20.6989 15.048 21.2589 13.608 21.2589 11.72C21.2589 9.832 20.6989 8.408 19.5789 7.448C18.4589 6.488 16.8109 6.008 14.6349 6.008H7.05094V17.48ZM41.1756 35.48C38.7436 35.48 36.6316 34.984 34.8396 33.992C33.0476 33 31.6556 31.592 30.6636 29.768C29.6716 27.912 29.1756 25.736 29.1756 23.24C29.1756 21.352 29.4476 19.672 29.9916 18.2C30.5676 16.696 31.3836 15.416 32.4396 14.36C33.4956 13.272 34.7596 12.456 36.2316 11.912C37.7036 11.336 39.3516 11.048 41.1756 11.048C43.6076 11.048 45.7196 11.544 47.5116 12.536C49.3036 13.528 50.6956 14.936 51.6876 16.76C52.6796 18.584 53.1756 20.744 53.1756 23.24C53.1756 25.128 52.8876 26.824 52.3116 28.328C51.7676 29.832 50.9676 31.128 49.9116 32.216C48.8556 33.272 47.5916 34.088 46.1196 34.664C44.6476 35.208 42.9996 35.48 41.1756 35.48ZM41.1756 30.92C42.3596 30.92 43.3996 30.632 44.2956 30.056C45.1916 29.48 45.8796 28.632 46.3596 27.512C46.8716 26.36 47.1276 24.936 47.1276 23.24C47.1276 20.68 46.5836 18.776 45.4956 17.528C44.4076 16.248 42.9676 15.608 41.1756 15.608C39.9916 15.608 38.9516 15.896 38.0556 16.472C37.1596 17.016 36.4556 17.864 35.9436 19.016C35.4636 20.136 35.2236 21.544 35.2236 23.24C35.2236 25.768 35.7676 27.688 36.8556 29C37.9436 30.28 39.3836 30.92 41.1756 30.92ZM67.1518 35.48C65.1038 35.48 63.2958 34.984 61.7278 33.992C60.1918 33 58.9918 31.592 58.1278 29.768C57.2638 27.912 56.8318 25.736 56.8318 23.24C56.8318 20.712 57.2638 18.552 58.1278 16.76C58.9918 14.936 60.1918 13.528 61.7278 12.536C63.2958 11.544 65.1038 11.048 67.1518 11.048C69.1038 11.048 70.7998 11.528 72.2398 12.488C73.7118 13.448 74.7038 14.712 75.2158 16.28H74.6878V3.8C74.6878 2.808 74.9438 2.056 75.4558 1.544C75.9678 1.032 76.7038 0.775997 77.6638 0.775997C78.6238 0.775997 79.3598 1.032 79.8718 1.544C80.4158 2.056 80.6878 2.808 80.6878 3.8V32.312C80.6878 33.304 80.4318 34.072 79.9198 34.616C79.4078 35.128 78.6718 35.384 77.7118 35.384C76.7518 35.384 76.0158 35.128 75.5038 34.616C74.9918 34.072 74.7358 33.304 74.7358 32.312V28.568L75.2638 30.008C74.7838 31.672 73.8078 33 72.3358 33.992C70.8638 34.984 69.1358 35.48 67.1518 35.48ZM68.8318 30.92C70.0158 30.92 71.0558 30.632 71.9518 30.056C72.8478 29.48 73.5358 28.632 74.0158 27.512C74.5278 26.36 74.7838 24.936 74.7838 23.24C74.7838 20.68 74.2398 18.776 73.1518 17.528C72.0638 16.248 70.6238 15.608 68.8318 15.608C67.6478 15.608 66.6078 15.896 65.7118 16.472C64.8158 17.016 64.1118 17.864 63.5998 19.016C63.1198 20.136 62.8798 21.544 62.8798 23.24C62.8798 25.768 63.4238 27.688 64.5118 29C65.5998 30.28 67.0398 30.92 68.8318 30.92ZM97.6131 35.48C95.1811 35.48 93.0691 34.984 91.2771 33.992C89.4851 33 88.0931 31.592 87.1011 29.768C86.1091 27.912 85.6131 25.736 85.6131 23.24C85.6131 21.352 85.8851 19.672 86.4291 18.2C87.0051 16.696 87.8211 15.416 88.8771 14.36C89.9331 13.272 91.1971 12.456 92.6691 11.912C94.1411 11.336 95.7891 11.048 97.6131 11.048C100.045 11.048 102.157 11.544 103.949 12.536C105.741 13.528 107.133 14.936 108.125 16.76C109.117 18.584 109.613 20.744 109.613 23.24C109.613 25.128 109.325 26.824 108.749 28.328C108.205 29.832 107.405 31.128 106.349 32.216C105.293 33.272 104.029 34.088 102.557 34.664C101.085 35.208 99.4371 35.48 97.6131 35.48ZM97.6131 30.92C98.7971 30.92 99.8371 30.632 100.733 30.056C101.629 29.48 102.317 28.632 102.797 27.512C103.309 26.36 103.565 24.936 103.565 23.24C103.565 20.68 103.021 18.776 101.933 17.528C100.845 16.248 99.4051 15.608 97.6131 15.608C96.4291 15.608 95.3891 15.896 94.4931 16.472C93.5971 17.016 92.8931 17.864 92.3811 19.016C91.9011 20.136 91.6611 21.544 91.6611 23.24C91.6611 25.768 92.2051 27.688 93.2931 29C94.3811 30.28 95.8211 30.92 97.6131 30.92ZM122.581 35.48C119.925 35.48 117.925 34.728 116.581 33.224C115.237 31.688 114.565 29.448 114.565 26.504V3.8C114.565 2.808 114.821 2.056 115.333 1.544C115.845 1.032 116.581 0.775997 117.541 0.775997C118.501 0.775997 119.237 1.032 119.749 1.544C120.293 2.056 120.565 2.808 120.565 3.8V26.216C120.565 27.688 120.869 28.776 121.477 29.48C122.117 30.184 123.013 30.536 124.165 30.536C124.421 30.536 124.661 30.536 124.885 30.536C125.109 30.504 125.333 30.472 125.557 30.44C126.005 30.376 126.309 30.504 126.469 30.824C126.629 31.112 126.709 31.72 126.709 32.648C126.709 33.448 126.549 34.072 126.229 34.52C125.909 34.968 125.381 35.24 124.645 35.336C124.325 35.368 123.989 35.4 123.637 35.432C123.285 35.464 122.933 35.48 122.581 35.48ZM140.363 35.48C137.931 35.48 135.819 34.984 134.027 33.992C132.235 33 130.843 31.592 129.851 29.768C128.859 27.912 128.363 25.736 128.363 23.24C128.363 21.352 128.635 19.672 129.179 18.2C129.755 16.696 130.571 15.416 131.627 14.36C132.683 13.272 133.947 12.456 135.419 11.912C136.891 11.336 138.539 11.048 140.363 11.048C142.795 11.048 144.907 11.544 146.699 12.536C148.491 13.528 149.883 14.936 150.875 16.76C151.867 18.584 152.363 20.744 152.363 23.24C152.363 25.128 152.075 26.824 151.499 28.328C150.955 29.832 150.155 31.128 149.099 32.216C148.043 33.272 146.779 34.088 145.307 34.664C143.835 35.208 142.187 35.48 140.363 35.48ZM140.363 30.92C141.547 30.92 142.587 30.632 143.483 30.056C144.379 29.48 145.067 28.632 145.547 27.512C146.059 26.36 146.315 24.936 146.315 23.24C146.315 20.68 145.771 18.776 144.683 17.528C143.595 16.248 142.155 15.608 140.363 15.608C139.179 15.608 138.139 15.896 137.243 16.472C136.347 17.016 135.643 17.864 135.131 19.016C134.651 20.136 134.411 21.544 134.411 23.24C134.411 25.768 134.955 27.688 136.043 29C137.131 30.28 138.571 30.92 140.363 30.92ZM168.259 44.12C166.531 44.12 164.851 43.96 163.219 43.64C161.619 43.32 160.163 42.824 158.851 42.152C158.243 41.832 157.827 41.448 157.603 41C157.411 40.552 157.347 40.088 157.411 39.608C157.507 39.16 157.699 38.76 157.987 38.408C158.307 38.056 158.691 37.816 159.139 37.688C159.587 37.56 160.051 37.624 160.531 37.88C161.939 38.584 163.267 39.032 164.515 39.224C165.795 39.448 166.883 39.56 167.779 39.56C169.923 39.56 171.523 39.032 172.579 37.976C173.667 36.952 174.211 35.416 174.211 33.368V29.048H174.643C174.163 30.68 173.155 31.992 171.619 32.984C170.115 33.944 168.403 34.424 166.483 34.424C164.371 34.424 162.531 33.944 160.963 32.984C159.395 31.992 158.179 30.616 157.315 28.856C156.451 27.096 156.019 25.048 156.019 22.712C156.019 20.952 156.259 19.368 156.739 17.96C157.251 16.52 157.955 15.288 158.851 14.264C159.779 13.24 160.883 12.456 162.163 11.912C163.475 11.336 164.915 11.048 166.483 11.048C168.467 11.048 170.195 11.544 171.667 12.536C173.171 13.496 174.147 14.776 174.595 16.376L174.115 17.576V14.168C174.115 13.176 174.371 12.424 174.883 11.912C175.427 11.4 176.163 11.144 177.091 11.144C178.051 11.144 178.787 11.4 179.299 11.912C179.811 12.424 180.067 13.176 180.067 14.168V32.648C180.067 36.456 179.059 39.32 177.043 41.24C175.027 43.16 172.099 44.12 168.259 44.12ZM168.115 29.864C169.363 29.864 170.435 29.576 171.331 29C172.227 28.424 172.915 27.608 173.395 26.552C173.907 25.464 174.163 24.184 174.163 22.712C174.163 20.504 173.619 18.776 172.531 17.528C171.443 16.248 169.971 15.608 168.115 15.608C166.867 15.608 165.795 15.896 164.899 16.472C164.003 17.048 163.299 17.864 162.787 18.92C162.307 19.976 162.067 21.24 162.067 22.712C162.067 24.92 162.611 26.664 163.699 27.944C164.787 29.224 166.259 29.864 168.115 29.864ZM189.26 35.336C188.3 35.336 187.564 35.048 187.052 34.472C186.54 33.896 186.284 33.096 186.284 32.072V14.456C186.284 13.4 186.54 12.6 187.052 12.056C187.564 11.48 188.3 11.192 189.26 11.192C190.22 11.192 190.956 11.48 191.468 12.056C192.012 12.6 192.284 13.4 192.284 14.456V32.072C192.284 33.096 192.028 33.896 191.516 34.472C191.004 35.048 190.252 35.336 189.26 35.336ZM189.26 6.728C188.14 6.728 187.26 6.456 186.62 5.912C186.012 5.336 185.708 4.552 185.708 3.56C185.708 2.536 186.012 1.752 186.62 1.208C187.26 0.663999 188.14 0.391999 189.26 0.391999C190.412 0.391999 191.292 0.663999 191.9 1.208C192.508 1.752 192.812 2.536 192.812 3.56C192.812 4.552 192.508 5.336 191.9 5.912C191.292 6.456 190.412 6.728 189.26 6.728ZM206.246 35.48C204.55 35.48 203.03 35.16 201.686 34.52C200.374 33.848 199.334 32.952 198.566 31.832C197.83 30.712 197.462 29.448 197.462 28.04C197.462 26.312 197.91 24.952 198.806 23.96C199.702 22.936 201.158 22.2 203.174 21.752C205.19 21.304 207.894 21.08 211.286 21.08H213.686V24.536H211.334C209.35 24.536 207.766 24.632 206.582 24.824C205.398 25.016 204.55 25.352 204.038 25.832C203.558 26.28 203.318 26.92 203.318 27.752C203.318 28.808 203.686 29.672 204.422 30.344C205.158 31.016 206.182 31.352 207.494 31.352C208.55 31.352 209.478 31.112 210.278 30.632C211.11 30.12 211.766 29.432 212.246 28.568C212.726 27.704 212.966 26.712 212.966 25.592V20.072C212.966 18.472 212.614 17.32 211.91 16.616C211.206 15.912 210.022 15.56 208.358 15.56C207.43 15.56 206.422 15.672 205.334 15.896C204.278 16.12 203.158 16.504 201.974 17.048C201.366 17.336 200.822 17.416 200.342 17.288C199.894 17.16 199.542 16.904 199.286 16.52C199.03 16.104 198.902 15.656 198.902 15.176C198.902 14.696 199.03 14.232 199.286 13.784C199.542 13.304 199.974 12.952 200.582 12.728C202.054 12.12 203.462 11.688 204.806 11.432C206.182 11.176 207.43 11.048 208.55 11.048C210.854 11.048 212.742 11.4 214.214 12.104C215.718 12.808 216.838 13.88 217.574 15.32C218.31 16.728 218.678 18.552 218.678 20.792V32.312C218.678 33.304 218.438 34.072 217.958 34.616C217.478 35.128 216.79 35.384 215.894 35.384C214.998 35.384 214.294 35.128 213.782 34.616C213.302 34.072 213.062 33.304 213.062 32.312V30.008H213.446C213.222 31.128 212.774 32.104 212.102 32.936C211.462 33.736 210.646 34.36 209.654 34.808C208.662 35.256 207.526 35.48 206.246 35.48ZM241.256 35.384C240.36 35.384 239.672 35.128 239.192 34.616C238.712 34.104 238.472 33.4 238.472 32.504V3.656C238.472 2.728 238.728 2.024 239.24 1.544C239.752 1.032 240.456 0.775997 241.352 0.775997C242.152 0.775997 242.776 0.935998 243.224 1.256C243.704 1.544 244.136 2.056 244.52 2.792L256.376 24.728H254.84L266.696 2.792C267.08 2.056 267.496 1.544 267.944 1.256C268.392 0.935998 269.016 0.775997 269.816 0.775997C270.712 0.775997 271.4 1.032 271.88 1.544C272.36 2.024 272.6 2.728 272.6 3.656V32.504C272.6 33.4 272.36 34.104 271.88 34.616C271.432 35.128 270.744 35.384 269.816 35.384C268.92 35.384 268.232 35.128 267.752 34.616C267.272 34.104 267.032 33.4 267.032 32.504V10.28H268.088L258.008 28.664C257.688 29.208 257.352 29.608 257 29.864C256.648 30.12 256.168 30.248 255.56 30.248C254.952 30.248 254.456 30.12 254.072 29.864C253.688 29.576 253.352 29.176 253.064 28.664L242.888 10.232H244.04V32.504C244.04 33.4 243.8 34.104 243.32 34.616C242.872 35.128 242.184 35.384 241.256 35.384ZM294.112 35.48C291.776 35.48 289.712 35.176 287.92 34.568C286.16 33.96 284.672 33.064 283.456 31.88C282.24 30.664 281.328 29.16 280.72 27.368C280.112 25.576 279.808 23.496 279.808 21.128V3.896C279.808 2.84 280.064 2.056 280.576 1.544C281.12 1.032 281.888 0.775997 282.88 0.775997C283.872 0.775997 284.624 1.032 285.136 1.544C285.68 2.056 285.952 2.84 285.952 3.896V21.08C285.952 24.12 286.64 26.408 288.016 27.944C289.424 29.448 291.456 30.2 294.112 30.2C296.768 30.2 298.784 29.448 300.16 27.944C301.536 26.408 302.224 24.12 302.224 21.08V3.896C302.224 2.84 302.48 2.056 302.992 1.544C303.536 1.032 304.304 0.775997 305.296 0.775997C306.256 0.775997 306.992 1.032 307.504 1.544C308.048 2.056 308.32 2.84 308.32 3.896V21.128C308.32 24.264 307.776 26.904 306.688 29.048C305.632 31.192 304.048 32.808 301.936 33.896C299.824 34.952 297.216 35.48 294.112 35.48Z" fill="#FFEFBD"/>
</svg>
