<svg width="309" height="45" viewBox="0 0 309 45" fill="none" xmlns="http://www.w3.org/2000/svg">
<path d="M3.768 35.384C2.776 35.384 2.008 35.112 1.464 34.568C0.952 33.992 0.696 33.208 0.696 32.216V4.28C0.696 3.256 0.968 2.488 1.512 1.976C2.056 1.432 2.824 1.16 3.816 1.16H15.384C19.096 1.16 21.96 2.088 23.976 3.944C25.992 5.8 27 8.392 27 11.72C27 15.048 25.992 17.656 23.976 19.544C21.96 21.4 19.096 22.328 15.384 22.328H6.84V32.216C6.84 33.208 6.584 33.992 6.072 34.568C5.56 35.112 4.792 35.384 3.768 35.384ZM6.84 17.48H14.424C16.6 17.48 18.248 17 19.368 16.04C20.488 15.048 21.048 13.608 21.048 11.72C21.048 9.832 20.488 8.408 19.368 7.448C18.248 6.488 16.6 6.008 14.424 6.008H6.84V17.48ZM40.9646 35.48C38.5326 35.48 36.4206 34.984 34.6286 33.992C32.8366 33 31.4446 31.592 30.4526 29.768C29.4606 27.912 28.9646 25.736 28.9646 23.24C28.9646 21.352 29.2366 19.672 29.7806 18.2C30.3566 16.696 31.1726 15.416 32.2286 14.36C33.2846 13.272 34.5486 12.456 36.0206 11.912C37.4926 11.336 39.1406 11.048 40.9646 11.048C43.3966 11.048 45.5086 11.544 47.3006 12.536C49.0926 13.528 50.4846 14.936 51.4766 16.76C52.4686 18.584 52.9646 20.744 52.9646 23.24C52.9646 25.128 52.6766 26.824 52.1006 28.328C51.5566 29.832 50.7566 31.128 49.7006 32.216C48.6446 33.272 47.3806 34.088 45.9086 34.664C44.4366 35.208 42.7886 35.48 40.9646 35.48ZM40.9646 30.92C42.1486 30.92 43.1886 30.632 44.0846 30.056C44.9806 29.48 45.6686 28.632 46.1486 27.512C46.6606 26.36 46.9166 24.936 46.9166 23.24C46.9166 20.68 46.3726 18.776 45.2846 17.528C44.1966 16.248 42.7566 15.608 40.9646 15.608C39.7806 15.608 38.7406 15.896 37.8446 16.472C36.9486 17.016 36.2446 17.864 35.7326 19.016C35.2526 20.136 35.0126 21.544 35.0126 23.24C35.0126 25.768 35.5566 27.688 36.6446 29C37.7326 30.28 39.1726 30.92 40.9646 30.92ZM66.9409 35.48C64.8929 35.48 63.0849 34.984 61.5169 33.992C59.9809 33 58.7809 31.592 57.9169 29.768C57.0529 27.912 56.6209 25.736 56.6209 23.24C56.6209 20.712 57.0529 18.552 57.9169 16.76C58.7809 14.936 59.9809 13.528 61.5169 12.536C63.0849 11.544 64.8929 11.048 66.9409 11.048C68.8929 11.048 70.5889 11.528 72.0289 12.488C73.5009 13.448 74.4929 14.712 75.0049 16.28H74.4769V3.8C74.4769 2.808 74.7329 2.056 75.2449 1.544C75.7569 1.032 76.4929 0.775997 77.4529 0.775997C78.4129 0.775997 79.1489 1.032 79.6609 1.544C80.2049 2.056 80.4769 2.808 80.4769 3.8V32.312C80.4769 33.304 80.2209 34.072 79.7089 34.616C79.1969 35.128 78.4609 35.384 77.5009 35.384C76.5409 35.384 75.8049 35.128 75.2929 34.616C74.7809 34.072 74.5249 33.304 74.5249 32.312V28.568L75.0529 30.008C74.5729 31.672 73.5969 33 72.1249 33.992C70.6529 34.984 68.9249 35.48 66.9409 35.48ZM68.6209 30.92C69.8049 30.92 70.8449 30.632 71.7409 30.056C72.6369 29.48 73.3249 28.632 73.8049 27.512C74.3169 26.36 74.5729 24.936 74.5729 23.24C74.5729 20.68 74.0289 18.776 72.9409 17.528C71.8529 16.248 70.4129 15.608 68.6209 15.608C67.4369 15.608 66.3969 15.896 65.5009 16.472C64.6049 17.016 63.9009 17.864 63.3889 19.016C62.9089 20.136 62.6689 21.544 62.6689 23.24C62.6689 25.768 63.2129 27.688 64.3009 29C65.3889 30.28 66.8289 30.92 68.6209 30.92ZM97.4021 35.48C94.9701 35.48 92.8581 34.984 91.0661 33.992C89.2741 33 87.8821 31.592 86.8901 29.768C85.8981 27.912 85.4021 25.736 85.4021 23.24C85.4021 21.352 85.6741 19.672 86.2181 18.2C86.7941 16.696 87.6101 15.416 88.6661 14.36C89.7221 13.272 90.9861 12.456 92.4581 11.912C93.9301 11.336 95.5781 11.048 97.4021 11.048C99.8341 11.048 101.946 11.544 103.738 12.536C105.53 13.528 106.922 14.936 107.914 16.76C108.906 18.584 109.402 20.744 109.402 23.24C109.402 25.128 109.114 26.824 108.538 28.328C107.994 29.832 107.194 31.128 106.138 32.216C105.082 33.272 103.818 34.088 102.346 34.664C100.874 35.208 99.2261 35.48 97.4021 35.48ZM97.4021 30.92C98.5861 30.92 99.6261 30.632 100.522 30.056C101.418 29.48 102.106 28.632 102.586 27.512C103.098 26.36 103.354 24.936 103.354 23.24C103.354 20.68 102.81 18.776 101.722 17.528C100.634 16.248 99.1941 15.608 97.4021 15.608C96.2181 15.608 95.1781 15.896 94.2821 16.472C93.3861 17.016 92.6821 17.864 92.1701 19.016C91.6901 20.136 91.4501 21.544 91.4501 23.24C91.4501 25.768 91.9941 27.688 93.0821 29C94.1701 30.28 95.6101 30.92 97.4021 30.92ZM122.37 35.48C119.714 35.48 117.714 34.728 116.37 33.224C115.026 31.688 114.354 29.448 114.354 26.504V3.8C114.354 2.808 114.61 2.056 115.122 1.544C115.634 1.032 116.37 0.775997 117.33 0.775997C118.29 0.775997 119.026 1.032 119.538 1.544C120.082 2.056 120.354 2.808 120.354 3.8V26.216C120.354 27.688 120.658 28.776 121.266 29.48C121.906 30.184 122.802 30.536 123.954 30.536C124.21 30.536 124.45 30.536 124.674 30.536C124.898 30.504 125.122 30.472 125.346 30.44C125.794 30.376 126.098 30.504 126.258 30.824C126.418 31.112 126.498 31.72 126.498 32.648C126.498 33.448 126.338 34.072 126.018 34.52C125.698 34.968 125.17 35.24 124.434 35.336C124.114 35.368 123.778 35.4 123.426 35.432C123.074 35.464 122.722 35.48 122.37 35.48ZM140.152 35.48C137.72 35.48 135.608 34.984 133.816 33.992C132.024 33 130.632 31.592 129.64 29.768C128.648 27.912 128.152 25.736 128.152 23.24C128.152 21.352 128.424 19.672 128.968 18.2C129.544 16.696 130.36 15.416 131.416 14.36C132.472 13.272 133.736 12.456 135.208 11.912C136.68 11.336 138.328 11.048 140.152 11.048C142.584 11.048 144.696 11.544 146.488 12.536C148.28 13.528 149.672 14.936 150.664 16.76C151.656 18.584 152.152 20.744 152.152 23.24C152.152 25.128 151.864 26.824 151.288 28.328C150.744 29.832 149.944 31.128 148.888 32.216C147.832 33.272 146.568 34.088 145.096 34.664C143.624 35.208 141.976 35.48 140.152 35.48ZM140.152 30.92C141.336 30.92 142.376 30.632 143.272 30.056C144.168 29.48 144.856 28.632 145.336 27.512C145.848 26.36 146.104 24.936 146.104 23.24C146.104 20.68 145.56 18.776 144.472 17.528C143.384 16.248 141.944 15.608 140.152 15.608C138.968 15.608 137.928 15.896 137.032 16.472C136.136 17.016 135.432 17.864 134.92 19.016C134.44 20.136 134.2 21.544 134.2 23.24C134.2 25.768 134.744 27.688 135.832 29C136.92 30.28 138.36 30.92 140.152 30.92ZM168.048 44.12C166.32 44.12 164.64 43.96 163.008 43.64C161.408 43.32 159.952 42.824 158.64 42.152C158.032 41.832 157.616 41.448 157.392 41C157.2 40.552 157.136 40.088 157.2 39.608C157.296 39.16 157.488 38.76 157.776 38.408C158.096 38.056 158.48 37.816 158.928 37.688C159.376 37.56 159.84 37.624 160.32 37.88C161.728 38.584 163.056 39.032 164.304 39.224C165.584 39.448 166.672 39.56 167.568 39.56C169.712 39.56 171.312 39.032 172.368 37.976C173.456 36.952 174 35.416 174 33.368V29.048H174.432C173.952 30.68 172.944 31.992 171.408 32.984C169.904 33.944 168.192 34.424 166.272 34.424C164.16 34.424 162.32 33.944 160.752 32.984C159.184 31.992 157.968 30.616 157.104 28.856C156.24 27.096 155.808 25.048 155.808 22.712C155.808 20.952 156.048 19.368 156.528 17.96C157.04 16.52 157.744 15.288 158.64 14.264C159.568 13.24 160.672 12.456 161.952 11.912C163.264 11.336 164.704 11.048 166.272 11.048C168.256 11.048 169.984 11.544 171.456 12.536C172.96 13.496 173.936 14.776 174.384 16.376L173.904 17.576V14.168C173.904 13.176 174.16 12.424 174.672 11.912C175.216 11.4 175.952 11.144 176.88 11.144C177.84 11.144 178.576 11.4 179.088 11.912C179.6 12.424 179.856 13.176 179.856 14.168V32.648C179.856 36.456 178.848 39.32 176.832 41.24C174.816 43.16 171.888 44.12 168.048 44.12ZM167.904 29.864C169.152 29.864 170.224 29.576 171.12 29C172.016 28.424 172.704 27.608 173.184 26.552C173.696 25.464 173.952 24.184 173.952 22.712C173.952 20.504 173.408 18.776 172.32 17.528C171.232 16.248 169.76 15.608 167.904 15.608C166.656 15.608 165.584 15.896 164.688 16.472C163.792 17.048 163.088 17.864 162.576 18.92C162.096 19.976 161.856 21.24 161.856 22.712C161.856 24.92 162.4 26.664 163.488 27.944C164.576 29.224 166.048 29.864 167.904 29.864ZM189.049 35.336C188.089 35.336 187.353 35.048 186.841 34.472C186.329 33.896 186.073 33.096 186.073 32.072V14.456C186.073 13.4 186.329 12.6 186.841 12.056C187.353 11.48 188.089 11.192 189.049 11.192C190.009 11.192 190.745 11.48 191.257 12.056C191.801 12.6 192.073 13.4 192.073 14.456V32.072C192.073 33.096 191.817 33.896 191.305 34.472C190.793 35.048 190.041 35.336 189.049 35.336ZM189.049 6.728C187.929 6.728 187.049 6.456 186.409 5.912C185.801 5.336 185.497 4.552 185.497 3.56C185.497 2.536 185.801 1.752 186.409 1.208C187.049 0.663999 187.929 0.391999 189.049 0.391999C190.201 0.391999 191.081 0.663999 191.689 1.208C192.297 1.752 192.601 2.536 192.601 3.56C192.601 4.552 192.297 5.336 191.689 5.912C191.081 6.456 190.201 6.728 189.049 6.728ZM206.036 35.48C204.34 35.48 202.82 35.16 201.476 34.52C200.164 33.848 199.124 32.952 198.355 31.832C197.62 30.712 197.252 29.448 197.252 28.04C197.252 26.312 197.7 24.952 198.596 23.96C199.492 22.936 200.948 22.2 202.964 21.752C204.98 21.304 207.684 21.08 211.076 21.08H213.476V24.536H211.124C209.14 24.536 207.556 24.632 206.372 24.824C205.188 25.016 204.34 25.352 203.828 25.832C203.348 26.28 203.108 26.92 203.108 27.752C203.108 28.808 203.476 29.672 204.212 30.344C204.948 31.016 205.972 31.352 207.284 31.352C208.34 31.352 209.268 31.112 210.068 30.632C210.9 30.12 211.556 29.432 212.036 28.568C212.516 27.704 212.756 26.712 212.756 25.592V20.072C212.756 18.472 212.404 17.32 211.7 16.616C210.996 15.912 209.812 15.56 208.148 15.56C207.22 15.56 206.212 15.672 205.124 15.896C204.068 16.12 202.948 16.504 201.764 17.048C201.156 17.336 200.612 17.416 200.132 17.288C199.684 17.16 199.332 16.904 199.076 16.52C198.82 16.104 198.692 15.656 198.692 15.176C198.692 14.696 198.82 14.232 199.076 13.784C199.332 13.304 199.764 12.952 200.372 12.728C201.844 12.12 203.252 11.688 204.596 11.432C205.972 11.176 207.22 11.048 208.34 11.048C210.644 11.048 212.532 11.4 214.004 12.104C215.508 12.808 216.628 13.88 217.364 15.32C218.1 16.728 218.468 18.552 218.468 20.792V32.312C218.468 33.304 218.228 34.072 217.748 34.616C217.268 35.128 216.58 35.384 215.684 35.384C214.788 35.384 214.084 35.128 213.572 34.616C213.092 34.072 212.852 33.304 212.852 32.312V30.008H213.236C213.012 31.128 212.564 32.104 211.892 32.936C211.252 33.736 210.436 34.36 209.444 34.808C208.452 35.256 207.316 35.48 206.036 35.48ZM241.045 35.384C240.149 35.384 239.461 35.128 238.981 34.616C238.501 34.104 238.261 33.4 238.261 32.504V3.656C238.261 2.728 238.517 2.024 239.029 1.544C239.541 1.032 240.245 0.775997 241.141 0.775997C241.941 0.775997 242.565 0.935998 243.013 1.256C243.493 1.544 243.925 2.056 244.309 2.792L256.165 24.728H254.629L266.485 2.792C266.869 2.056 267.285 1.544 267.733 1.256C268.181 0.935998 268.805 0.775997 269.605 0.775997C270.501 0.775997 271.189 1.032 271.669 1.544C272.149 2.024 272.389 2.728 272.389 3.656V32.504C272.389 33.4 272.149 34.104 271.669 34.616C271.221 35.128 270.533 35.384 269.605 35.384C268.709 35.384 268.021 35.128 267.541 34.616C267.061 34.104 266.821 33.4 266.821 32.504V10.28H267.877L257.797 28.664C257.477 29.208 257.141 29.608 256.789 29.864C256.437 30.12 255.957 30.248 255.349 30.248C254.741 30.248 254.245 30.12 253.861 29.864C253.477 29.576 253.141 29.176 252.853 28.664L242.677 10.232H243.829V32.504C243.829 33.4 243.589 34.104 243.109 34.616C242.661 35.128 241.973 35.384 241.045 35.384ZM293.901 35.48C291.565 35.48 289.501 35.176 287.709 34.568C285.949 33.96 284.461 33.064 283.245 31.88C282.029 30.664 281.117 29.16 280.509 27.368C279.901 25.576 279.597 23.496 279.597 21.128V3.896C279.597 2.84 279.853 2.056 280.365 1.544C280.909 1.032 281.677 0.775997 282.669 0.775997C283.661 0.775997 284.413 1.032 284.925 1.544C285.469 2.056 285.741 2.84 285.741 3.896V21.08C285.741 24.12 286.429 26.408 287.805 27.944C289.213 29.448 291.245 30.2 293.901 30.2C296.557 30.2 298.573 29.448 299.949 27.944C301.325 26.408 302.013 24.12 302.013 21.08V3.896C302.013 2.84 302.269 2.056 302.781 1.544C303.325 1.032 304.093 0.775997 305.085 0.775997C306.045 0.775997 306.781 1.032 307.293 1.544C307.837 2.056 308.109 2.84 308.109 3.896V21.128C308.109 24.264 307.565 26.904 306.477 29.048C305.421 31.192 303.837 32.808 301.725 33.896C299.613 34.952 297.005 35.48 293.901 35.48Z" fill="#2C2100"/>
</svg>
