<svg width="180" height="180" viewBox="0 0 180 180" fill="none" xmlns="http://www.w3.org/2000/svg">
<g clip-path="url(#clip0_202_2)">
<path d="M172.429 31.277C166.021 26.3523 157.032 26.6052 149.782 29.7996C150.311 25.4606 150.841 21.1083 151.37 16.7693C152.131 10.6069 150.854 4.48445 144.595 1.39659C141.024 -0.360301 136.869 0.0389939 133 0.0389939C126.523 0.0389939 120.047 0.0389939 113.584 0.0389939C96.3399 0.0389939 79.0827 0.0389939 61.839 0.0389939C56.1635 0.0389939 50.488 0.0389939 44.8126 0.0389939C39.3408 0.0389939 34.1269 0.824268 30.7868 5.74887C27.8133 10.1278 28.7909 14.8527 29.3747 19.6576C29.7956 23.1181 30.2165 26.5786 30.6374 30.0258C24.6361 27.2308 17.2227 26.379 11.1806 29.0542C5.34221 31.6363 2.35512 36.6541 0.983768 42.5636C-1.85397 54.8219 1.41826 69.263 11.1806 77.8344C18.4175 84.1832 28.017 86.3926 37.5213 86.3261C38.2545 92.0625 39.4222 97.5195 43.0203 102.351C48.6007 109.858 57.2905 113.704 66.6455 113.757C70.8138 113.771 74.9822 113.771 79.137 113.771C79.137 126.761 79.137 139.765 79.137 152.755C79.137 154.046 79.137 155.324 79.137 156.615C74.955 156.548 70.746 156.601 67.3515 159.423C61.8254 164.042 63.1696 171.761 63.1696 178.11C63.1696 179.135 64.0521 180 65.0976 180C79.748 180 94.4119 180 109.062 180C111.14 180 113.203 180 115.281 180C115.81 180 116.204 179.8 116.503 179.534C116.543 179.494 116.598 179.468 116.639 179.441C116.679 179.401 116.693 179.361 116.734 179.321C117.019 179.015 117.222 178.629 117.222 178.11C117.222 172.972 118.322 166.371 115.267 161.872C111.886 156.894 106.645 156.655 101.255 156.641C101.255 143.638 101.255 130.634 101.255 117.631C101.255 116.34 101.255 115.048 101.255 113.757C104.256 113.757 107.256 113.744 110.257 113.744C111.71 113.744 113.163 113.744 114.615 113.744C125.939 113.518 136.204 107.049 140.576 96.6943C141.975 93.3935 142.49 89.8531 142.898 86.3127C151.235 86.3127 159.707 84.5692 166.496 79.6046C172.144 75.4653 176.068 69.5425 178.118 62.9541C181.119 53.3445 181.391 38.1581 172.429 31.277ZM5.64092 62.3552C3.97086 57.2176 3.46849 51.6542 4.20168 46.3037C4.71764 42.537 5.81743 38.1581 8.58728 35.3231C14.4257 29.3604 24.4324 30.5982 31.0719 34.5512C31.1127 34.5778 31.1534 34.5778 31.1941 34.5911C31.4385 36.5742 31.6829 38.5574 31.9138 40.5405C33.6245 54.5291 35.3353 68.5309 37.0461 82.5195C29.592 82.5195 22.0835 81.082 15.9328 76.743C10.977 73.2426 7.48749 68.0385 5.64092 62.3552ZM109.931 161.832C114.303 164.84 113.624 171.229 113.407 176.207C99.3813 176.207 85.3555 176.207 71.3298 176.207C69.9041 176.207 68.4785 176.207 67.0528 176.207C67.0528 174.636 67.0528 173.066 67.0528 171.508C67.0528 168.926 66.822 166.344 68.3155 164.055C71.099 159.756 76.2042 160.435 80.6712 160.435C80.807 160.435 80.9564 160.435 81.0922 160.435C86.6862 160.435 92.2802 160.435 97.8742 160.435C98.363 160.435 98.8518 160.435 99.3406 160.435C99.4085 160.435 99.4628 160.408 99.5306 160.395C102.979 160.262 107.175 159.956 109.931 161.832ZM97.3854 152.755C97.3854 154.046 97.3854 155.35 97.3854 156.641C92.5925 156.641 87.7995 156.641 83.0066 156.641C83.0066 143.638 83.0066 130.647 83.0066 117.644C83.0066 116.353 83.0066 115.062 83.0066 113.771C87.7995 113.771 92.5925 113.771 97.3854 113.771C97.3854 126.761 97.3854 139.751 97.3854 152.755ZM130.977 103.722C126.482 107.768 120.685 109.831 114.615 109.951C109.51 109.951 104.419 109.951 99.3134 109.951C93.2306 109.951 87.1478 109.951 81.0786 109.951C79.5986 109.951 78.1322 109.951 76.6522 109.951C71.7507 109.951 66.4282 110.443 61.5674 109.591C51.0176 107.755 43.1832 99.303 41.7169 89.0146C38.241 64.6844 35.7427 40.1812 32.7691 15.7844C32.0224 9.64863 34.8601 4.0186 41.9205 3.80565C45.3828 3.69917 48.8723 3.80565 52.3346 3.80565C67.5145 3.80565 82.7079 3.80565 97.8878 3.80565C110.596 3.80565 123.319 3.80565 136.027 3.80565C136.924 3.80565 137.833 3.77903 138.716 3.80565C144.473 4.0186 148.275 8.53061 147.84 14.0808C147.582 17.2751 147.053 20.4694 146.672 23.6505C144.826 38.797 142.966 53.9434 141.119 69.1032C139.721 80.5363 140.277 95.3367 130.977 103.722ZM165.98 75.1459C159.775 80.6029 151.479 82.4396 143.332 82.5195C145.274 66.6542 147.216 50.789 149.157 34.9238C149.184 34.7242 149.198 34.5378 149.225 34.3382C154.873 31.1305 162.64 29.8262 168.437 33.1669C172.769 35.6559 174.493 39.9815 175.403 44.6133C177.521 55.3676 174.452 67.719 165.98 75.1459ZM123.427 47.8609C119.761 47.3418 116.109 46.8227 112.443 46.2903C109.863 45.9177 107.297 45.5583 104.717 45.1856C103.808 45.0525 102.83 44.813 101.893 44.7863C101.757 44.7863 101.676 44.7597 101.567 44.7331C101.527 44.6399 101.499 44.5734 101.486 44.5468C101.187 43.7615 100.712 43.0028 100.332 42.2575C99.1912 39.9948 98.0507 37.7322 96.9102 35.4695C95.2265 32.1288 93.5429 28.7747 91.8593 25.434C91.5062 24.7419 90.936 24.489 90.3521 24.5023C89.6597 24.3692 88.9265 24.6088 88.5191 25.434C86.8762 28.6816 85.2469 31.9424 83.604 35.19C82.4499 37.4793 81.2958 39.7686 80.1553 42.0445C79.748 42.8564 79.2184 43.6949 78.8926 44.5468C78.879 44.6 78.8383 44.6666 78.7975 44.7331C78.6889 44.7597 78.5939 44.773 78.4852 44.7863C77.6298 44.813 76.7473 45.0392 75.9055 45.159C73.3529 45.5184 70.8138 45.891 68.2612 46.2504C64.4866 46.7828 60.7256 47.3285 56.951 47.8609C55.471 48.0739 55.1452 50.1235 56.0956 51.0286C61.3095 56.0198 66.5369 60.9976 71.7507 65.9888C70.5287 72.9498 69.3067 79.9241 68.0983 86.8851C67.8132 88.5088 69.361 89.8398 70.936 89.0279C77.3447 85.7271 83.767 82.413 90.1756 79.1122C96.5843 82.413 103.007 85.7271 109.415 89.0279C111.004 89.8398 112.538 88.5088 112.253 86.8851C111.031 79.9241 109.809 72.9498 108.601 65.9888C113.814 60.9976 119.042 56.0198 124.256 51.0286C125.233 50.1235 124.907 48.0739 123.427 47.8609ZM107.324 61.9426C106.537 62.7013 105.016 63.7128 104.69 64.8175C104.391 65.829 104.989 67.5194 105.152 68.491C105.586 70.9666 106.021 73.4422 106.455 75.9178C106.917 78.5931 107.392 81.255 107.854 83.9303C105.369 82.6526 102.898 81.3748 100.413 80.0971C98.2136 78.9658 96.0005 77.8211 93.8009 76.6898C92.8369 76.1973 91.3433 75.066 90.1892 75.066C89.0894 75.066 87.6773 76.1175 86.7676 76.5833C84.5002 77.7546 82.2327 78.9258 79.9652 80.0971C77.4805 81.3748 75.0093 82.6526 72.5246 83.9303C72.9863 81.255 73.4615 78.5931 73.9231 75.9178C74.344 73.5088 74.7649 71.0997 75.1859 68.704C75.3624 67.6658 76.0005 65.8823 75.6882 64.8175C75.3759 63.7527 73.9639 62.8077 73.2171 62.089C71.3841 60.3321 69.5511 58.5752 67.7181 56.8317C65.6815 54.8884 63.6448 52.9452 61.6217 51.002C64.283 50.6293 66.9578 50.2433 69.619 49.8574C72.2938 49.4714 74.9686 49.0987 77.6434 48.7127C78.7296 48.553 80.3318 48.6329 81.2551 47.9541C82.1512 47.2886 82.5993 45.7446 83.0745 44.7997C84.2286 42.5104 85.3691 40.2344 86.5232 37.9451C87.7452 35.5095 88.9672 33.0871 90.1892 30.6514C91.3705 32.9806 92.5381 35.3231 93.7194 37.6656C94.9142 40.0481 96.1091 42.4172 97.3039 44.7997C97.7791 45.7446 98.2272 47.2886 99.1233 47.9541C100.033 48.6329 101.662 48.5663 102.735 48.7127C105.301 49.0854 107.881 49.4447 110.447 49.8174C113.217 50.2167 115.987 50.6027 118.757 51.002C116.72 52.9452 114.697 54.8884 112.66 56.8317C110.895 58.5353 109.103 60.239 107.324 61.9426Z" fill="#FFEFBD"/>
</g>
<defs>
<clipPath id="clip0_202_2">
<rect width="180" height="180" fill="white"/>
</clipPath>
</defs>
</svg>
