<svg width="180" height="180" viewBox="0 0 180 180" fill="none" xmlns="http://www.w3.org/2000/svg">
<path d="M136.59 33.1856C137.178 31.8614 137.766 30.5372 138.343 29.2131C142.483 19.8081 146.622 10.3918 150.762 0.998203C151.757 -1.25401 155.038 0.703945 154.065 2.93352C153.477 4.25768 152.888 5.58185 152.312 6.90601C148.172 16.311 144.032 25.7159 139.893 35.1209C138.897 37.3618 135.606 35.4151 136.59 33.1856ZM120.506 30.8768C120.88 31.8727 121.253 32.88 121.615 33.8646C122.463 36.1621 126.162 35.1662 125.302 32.846C122.701 25.8291 120.088 18.8235 117.486 11.8179C117.113 10.8219 116.751 9.81465 116.378 8.83001C115.53 6.53253 111.831 7.52848 112.691 9.8486C115.281 16.8655 117.905 23.8825 120.506 30.8768ZM171.619 35.4717C164.471 37.2599 157.322 39.0707 150.151 40.8589C149.145 41.1192 148.138 41.3569 147.131 41.6172C144.745 42.2284 145.752 45.9066 148.149 45.3068C155.298 43.5073 162.446 41.7078 169.617 39.9196C170.623 39.6593 171.63 39.4216 172.637 39.1613C175.023 38.5615 174.017 34.8606 171.619 35.4717ZM168.339 83.119C168.339 83.1756 168.339 83.2322 168.35 83.2774C168.35 83.2888 168.339 83.3001 168.339 83.334C168.327 83.4585 168.305 83.583 168.271 83.7075C168.248 83.8094 168.214 83.8999 168.18 83.9905C168.124 84.115 168.056 84.2394 167.977 84.3526C167.943 84.4092 167.909 84.4658 167.875 84.5224C167.875 84.5337 167.875 84.5337 167.864 84.545C164.629 88.427 161.405 92.3202 158.171 96.2022C135.267 123.749 112.374 151.285 89.4701 178.832C89.3457 179.104 89.1534 179.319 88.8933 179.477C88.52 179.851 88.0902 180.021 87.6831 179.998C87.2533 180.021 86.8348 179.851 86.4615 179.466C86.4502 179.455 86.4389 179.443 86.4276 179.432C86.405 179.398 86.3597 179.398 86.3371 179.353C86.3032 179.319 86.2579 179.262 86.224 179.228C86.1222 179.127 86.0204 179.025 85.9412 178.889C82.8308 175.165 79.743 171.442 76.6439 167.707C53.5704 139.979 30.5308 112.262 7.47982 84.5337C7.46851 84.5224 7.4572 84.4998 7.44589 84.4658C7.34409 84.3526 7.26492 84.2168 7.19705 84.081C7.19705 84.0584 7.18574 84.047 7.17443 84.0131C7.11788 83.8999 7.08395 83.7754 7.06132 83.6509C7.0387 83.5717 7.02739 83.5038 7.00477 83.4359C7.00477 83.4133 7.00477 83.368 7.00477 83.334C6.97084 82.8021 7.11788 82.2928 7.44589 81.908C7.4572 81.8967 7.46851 81.8741 7.47982 81.8401C17.4897 69.3002 27.4995 56.7715 37.5094 44.2316C37.9844 43.6204 38.3803 43.0093 38.878 42.5226C39.1833 42.0473 39.7262 41.7643 40.2918 41.6738C40.3936 41.6399 40.4727 41.5833 40.5859 41.5606C41.6377 41.3569 42.9271 41.5606 44.0016 41.5606C50.5505 41.5606 57.0767 41.5606 63.6142 41.5606C81.6658 41.5606 99.7288 41.5606 117.769 41.5606C122.271 41.5606 127.168 40.9947 131.659 41.5606C131.738 41.5606 131.817 41.6172 131.896 41.6285C132.575 41.5946 133.276 41.9002 133.672 42.4321C136.013 44.0279 138.049 47.4571 139.576 49.2114C149.009 60.0876 158.442 70.9752 167.864 81.8514C167.864 81.8627 167.875 81.8741 167.875 81.8741C167.886 81.8967 167.898 81.9306 167.932 81.9533C168.056 82.1117 168.169 82.3041 168.237 82.4965C168.237 82.5078 168.248 82.5192 168.248 82.5305C168.271 82.5984 168.271 82.6437 168.282 82.7116C168.316 82.8474 168.339 82.9719 168.339 83.119ZM122.599 81.2855C135.832 81.2855 149.077 81.2855 162.322 81.2855C152.888 70.4093 143.478 59.533 134.068 48.6568C133.966 48.5436 133.457 48.023 132.88 47.4232C132.71 47.9664 132.563 48.4983 132.394 49.019C129.136 59.7707 125.868 70.5338 122.599 81.2855ZM90.6577 45.3634C97.7721 53.8289 104.898 62.2945 112.023 70.7488C114.365 73.533 116.955 76.2492 119.251 79.1126C119.409 78.6259 119.545 78.1279 119.703 77.6413C122.961 66.8895 126.229 56.1264 129.498 45.3747C123.56 45.3747 117.622 45.3747 111.65 45.3634C104.649 45.3634 97.6477 45.3634 90.6577 45.3634ZM86.552 46.4046C76.5421 58.0278 66.5436 69.6623 56.5338 81.2855C75.4224 81.2855 94.3111 81.2855 113.188 81.2855C114.093 81.2855 115.009 81.2855 115.903 81.2855C106.131 69.6623 96.347 58.0278 86.552 46.4046ZM43.142 45.4199C43.4022 46.2688 43.6397 47.1289 43.8998 47.989C47.0103 58.4126 50.098 68.8588 53.1971 79.2936C62.9355 67.9873 72.6626 56.681 82.3897 45.3747C74.2122 45.3747 66.012 45.3747 57.8232 45.3747C52.9935 45.3747 47.983 45.7368 43.142 45.4199ZM12.7619 81.2742C17.9308 81.2742 23.0771 81.2742 28.2347 81.2742C35.4282 81.2742 42.5991 81.2742 49.7927 81.2742C49.5325 80.4028 49.2724 79.5313 49.0235 78.6599C45.9697 68.3721 42.9158 58.0731 39.8507 47.774C38.8666 48.9397 37.7356 50.0602 36.9438 51.0222C28.8681 61.0949 20.815 71.1902 12.7619 81.2742ZM81.9712 168.182C81.7789 167.684 81.598 167.164 81.4057 166.666C71.294 139.492 61.1711 112.307 51.0481 85.1222C38.335 85.1222 25.622 85.1222 12.8976 85.1222C15.2162 87.9177 17.5462 90.7018 19.8649 93.4973C40.5745 118.396 61.2616 143.295 81.9712 168.182ZM89.8547 165.681C99.0163 138.813 108.178 111.968 117.339 85.1109C98.9371 85.1109 80.5348 85.1109 62.1325 85.1109C59.7912 85.1109 57.4612 85.1109 55.1086 85.1109C56.2849 88.2572 57.4499 91.4035 58.6262 94.5498C68.2854 120.479 77.9333 146.407 87.5926 172.336C88.3504 170.106 89.0969 167.888 89.8547 165.681ZM162.412 85.0996C157.3 85.0996 152.187 85.0996 147.052 85.0996C138.501 85.0996 129.939 85.0996 121.389 85.0996C121.242 85.507 121.083 85.9371 120.914 86.4238C117.407 96.6889 113.924 106.943 110.417 117.208C104.547 134.399 98.6769 151.613 92.8068 168.828C93.8813 167.549 94.9331 166.27 95.9963 165.002C118.142 138.383 140.289 111.753 162.412 85.0996Z" fill="#FFEFBD"/>
</svg>
