<svg width="300" height="180" viewBox="0 0 300 180" fill="none" xmlns="http://www.w3.org/2000/svg">
<path d="M268.97 104.934C268.931 104.566 268.804 104.197 268.487 103.854C261.813 96.829 254.148 90.617 246.433 84.7987C238.87 79.0821 230.913 73.8355 222.638 69.1352C225.625 66.5945 228.612 64.041 231.599 61.5003C232.082 61.0811 232.565 60.6746 233.061 60.2554C233.811 59.6075 233.773 58.2355 233.061 57.5876C232.26 56.8508 231.192 56.9016 230.391 57.5876C227.036 60.4459 223.667 63.3169 220.299 66.1879C219.917 66.5182 219.536 66.8485 219.142 67.1661C212.151 63.3931 204.931 60.0521 197.508 57.2319C200.813 51.4899 204.105 45.7478 207.41 40.0058C207.918 39.1166 208.439 38.2273 208.948 37.3381C210.155 35.2293 206.901 33.3237 205.694 35.4325C202.122 41.6446 198.55 47.8693 194.978 54.0814C194.622 54.7039 194.266 55.3264 193.91 55.9488C192.817 55.5677 191.724 55.1358 190.618 54.7801C185.076 52.9635 179.458 51.528 173.801 50.4609C175.505 42.8641 177.208 35.2674 178.911 27.6579C179.166 26.5019 179.432 25.3459 179.687 24.1898C180.221 21.827 176.572 20.8107 176.051 23.1862C174.234 31.3038 172.403 39.4342 170.586 47.5518C170.42 48.3013 170.242 49.0635 170.077 49.813C165.082 49.0127 160.048 48.4918 155.014 48.2886C153.692 48.1742 152.358 48.1107 151.036 48.098C151.036 39.8661 151.036 31.6341 151.036 23.4022C151.036 22.2081 151.036 21.0139 151.036 19.8198C151.036 17.3934 147.261 17.3934 147.261 19.8198C147.261 28.2677 147.261 36.7283 147.261 45.1762C147.261 46.1671 147.261 47.1706 147.261 48.1742C146.943 48.1869 146.638 48.225 146.32 48.2505C140.295 48.4156 134.27 49.0254 128.27 50.0671C126.516 42.2671 124.775 34.4797 123.021 26.6797C122.766 25.5237 122.499 24.3677 122.245 23.2117C121.711 20.8488 118.076 21.8397 118.61 24.2152C120.427 32.3328 122.258 40.4631 124.076 48.5807C124.241 49.3176 124.406 50.0417 124.571 50.7785C122.449 51.2104 120.339 51.6804 118.228 52.2267C113.525 53.4462 108.899 54.9453 104.335 56.6094C100.865 50.5752 97.3949 44.541 93.9248 38.4941C93.4164 37.6048 92.9079 36.7156 92.3868 35.8263C91.1792 33.7175 87.9124 35.6231 89.12 37.7319C92.6918 43.9439 96.2637 50.1687 99.8355 56.3808C100.141 56.9143 100.446 57.4352 100.751 57.9687C93.5308 60.8016 86.5015 64.1045 79.7138 67.8521C79.6375 67.7124 79.574 67.5726 79.4341 67.4583C76.0657 64.6 72.7099 61.729 69.3415 58.858C68.8585 58.4387 68.3755 58.0322 67.8797 57.613C67.1298 56.9778 65.9349 56.8254 65.2104 57.613C64.5621 58.3117 64.4096 59.5948 65.2104 60.2808C68.5788 63.1391 71.9346 66.0101 75.303 68.8811C75.6589 69.1733 76.0021 69.4782 76.3453 69.7704C70.4219 73.1749 64.6511 76.859 59.1091 80.7844C49.3851 87.6443 39.7627 95.203 31.5386 103.854C30.8268 104.604 30.8141 105.772 31.5386 106.522C38.2755 113.445 46.0039 119.556 53.7704 125.272C70.6889 137.735 89.4378 148.063 109.496 154.478C121.432 158.289 133.672 160.423 145.964 160.83C148.748 161.046 151.557 161.058 154.366 160.855C163.493 160.563 172.632 159.293 181.644 157.019C202.973 151.632 222.981 141.52 241.005 129.02C250.666 122.325 260.25 114.97 268.474 106.522C268.842 106.141 268.982 105.722 268.982 105.302C268.982 105.277 268.995 105.252 268.995 105.226C269.008 105.124 268.995 105.036 268.97 104.934ZM60.5835 125.526C51.8256 119.429 43.182 112.734 35.5808 105.163C41.6186 99.0267 48.3555 93.4626 55.194 88.2795C71.7566 75.7156 90.1369 65.1462 109.928 58.5912C114.224 57.1684 118.559 55.9742 122.919 54.9961C116.652 58.3752 110.996 62.9358 106.369 68.5762C91.3699 86.8694 89.2598 113.318 101.513 133.644C106.827 142.473 114.415 149.473 123.186 154.173C121.559 153.817 119.944 153.512 118.33 153.093C97.5475 147.682 78.1376 137.735 60.5835 125.526ZM109.356 138.205C95.1705 121.195 93.3528 96.2828 104.767 77.329C116.144 58.4514 138.77 48.4156 160.417 52.7856C184.962 57.74 202.592 79.6411 202.821 104.527C202.605 126.594 188.724 146.843 167.764 154.249C146.994 161.592 123.44 155.088 109.356 138.205ZM206.583 104.54C206.38 83.8332 194.978 64.8032 177.119 54.958C178.708 55.3137 180.284 55.6948 181.86 56.1267C202.605 61.6782 221.926 71.8537 239.353 84.2652C248.161 90.528 256.83 97.4261 264.432 105.175C258.33 111.235 251.53 116.697 244.641 121.779C228.04 134.038 209.698 144.29 190.021 150.667C185.75 152.052 181.428 153.144 177.094 154.084C194.749 144.302 206.393 125.323 206.583 104.54ZM158.294 146.691C178.403 142.841 192.741 124.777 192.995 104.54C192.766 86.7424 181.848 70.6596 165.12 64.3205C148.252 57.9179 128.461 63.1899 116.97 77.0876C105.441 91.0362 103.814 111.286 113.246 126.797C122.538 142.079 140.727 150.057 158.294 146.691ZM116.5 84.1889C124.978 70.2531 141.782 62.8342 157.798 66.1117C164.065 67.3948 169.696 70.1769 174.412 73.988C171.094 74.1023 167.827 75.5759 165.692 78.1674C162.552 82.0039 162.018 87.4919 164.573 91.7857C167.141 96.0795 172.124 98.2137 177.005 97.3372C181.339 96.5623 184.657 93.272 185.941 89.245C187.974 93.9834 189.144 99.1538 189.22 104.527C189.017 120.928 178.784 135.943 163.162 141.457C147.68 146.932 130.05 142.016 119.627 129.325C109.229 116.634 107.983 98.201 116.5 84.1889ZM176.14 77.8371C179.979 78.5358 182.725 81.8896 182.788 85.7642C182.737 89.0671 180.716 92.1668 177.551 93.2974C174.297 94.4662 170.611 93.4753 168.437 90.7821C166.353 88.1906 166.137 84.4684 167.84 81.6355C169.518 78.8153 172.886 77.2528 176.14 77.8371Z" fill="#FFEFBD"/>
</svg>
